# xmcd
#
# Track frame offsets: 
#        150
#        17870
#        39560
#        60750
#        74295
#        94282
#        116850
#        138095
#        157030
#        176287
#        198947
#        211040
#        233230
#        253582
#        272522
#        295055
#
# Disc length: 4233 seconds
#
# Revision: 2
# Processed by: cddbd v1.5.2PL0 Copyright (c) Steve Scherf et al.
# Submitted via: ExactAudioCopy v1.0b3
#
DISCID=db108710
DTITLE=Zhane - Saturday Night
DYEAR=1997
DGENRE=Pop
TTITLE0=Request Line
TTITLE1=Saturday Night
TTITLE2=So Badd
TTITLE3=Crush
TTITLE4=This Song Is For You
TTITLE5=Just Like That
TTITLE6=Last Dance
TTITLE7=Good Times
TTITLE8=For The Longest Time
TTITLE9=Rendez-Vous
TTITLE10=My Word Is Bond
TTITLE11=Kindness for Granted
TTITLE12=Temporary Thing
TTITLE13=Confusion
TTITLE14=Color
TTITLE15=Piece It Together
EXTD=
EXTT0=
EXTT1=Featuring the LOX
EXTT2=
EXTT3=
EXTT4=
EXTT5=
EXTT6=
EXTT7=
EXTT8=
EXTT9=
EXTT10=
EXTT11=
EXTT12=
EXTT13=
EXTT14=
EXTT15=Featuring Will Downing and Najee)
PLAYORDER=
